<mxfile host="app.diagrams.net" agent="Mozilla/5.0 (Windows NT 10.0; Win64; x64) AppleWebKit/537.36 (KHTML, like Gecko) Chrome/138.0.0.0 Safari/537.36" version="28.1.0">
  <diagram name="Página-1" id="TJmjayn9he-VXkFxc6Wi">
    <mxGraphModel grid="1" page="1" gridSize="10" guides="1" tooltips="1" connect="1" arrows="1" fold="1" pageScale="1" pageWidth="827" pageHeight="1169" math="0" shadow="0">
      <root>
        <mxCell id="0" />
        <mxCell id="1" parent="0" />
        <mxCell id="OaQ3OgYtoZX91j-wxRvZ-8" style="edgeStyle=orthogonalEdgeStyle;rounded=0;orthogonalLoop=1;jettySize=auto;html=1;" edge="1" parent="1" source="EqQMDcm6i_RlThikZK2u-1" target="EqQMDcm6i_RlThikZK2u-7">
          <mxGeometry relative="1" as="geometry">
            <mxPoint x="311.25" y="290" as="targetPoint" />
          </mxGeometry>
        </mxCell>
        <mxCell id="EqQMDcm6i_RlThikZK2u-1" value="inicio" style="ellipse;whiteSpace=wrap;html=1;" vertex="1" parent="1">
          <mxGeometry x="251.25" y="30" width="120" height="80" as="geometry" />
        </mxCell>
        <mxCell id="PIHjeUbVuv9eCzz-kvKn-1" value="" style="edgeStyle=orthogonalEdgeStyle;rounded=0;orthogonalLoop=1;jettySize=auto;html=1;" edge="1" parent="1" source="EqQMDcm6i_RlThikZK2u-7" target="EqQMDcm6i_RlThikZK2u-1">
          <mxGeometry relative="1" as="geometry" />
        </mxCell>
        <mxCell id="PIHjeUbVuv9eCzz-kvKn-10" value="" style="edgeStyle=orthogonalEdgeStyle;rounded=0;orthogonalLoop=1;jettySize=auto;html=1;" edge="1" parent="1" source="EqQMDcm6i_RlThikZK2u-7" target="PIHjeUbVuv9eCzz-kvKn-9">
          <mxGeometry relative="1" as="geometry" />
        </mxCell>
        <mxCell id="EqQMDcm6i_RlThikZK2u-7" value="entrada de saldo" style="shape=manualInput;whiteSpace=wrap;html=1;" vertex="1" parent="1">
          <mxGeometry x="260" y="150" width="100" height="80" as="geometry" />
        </mxCell>
        <mxCell id="EqQMDcm6i_RlThikZK2u-14" value="" style="edgeStyle=orthogonalEdgeStyle;rounded=0;orthogonalLoop=1;jettySize=auto;html=1;" edge="1" parent="1" source="EqQMDcm6i_RlThikZK2u-10" target="EqQMDcm6i_RlThikZK2u-13">
          <mxGeometry relative="1" as="geometry" />
        </mxCell>
        <mxCell id="EqQMDcm6i_RlThikZK2u-10" value="&quot;saldo inicial é&quot;&amp;nbsp; + saldo" style="shape=display;whiteSpace=wrap;html=1;" vertex="1" parent="1">
          <mxGeometry x="426.25" y="390" width="167.5" height="40" as="geometry" />
        </mxCell>
        <mxCell id="EqQMDcm6i_RlThikZK2u-17" value="" style="edgeStyle=orthogonalEdgeStyle;rounded=0;orthogonalLoop=1;jettySize=auto;html=1;" edge="1" parent="1" source="EqQMDcm6i_RlThikZK2u-13" target="EqQMDcm6i_RlThikZK2u-16">
          <mxGeometry relative="1" as="geometry" />
        </mxCell>
        <mxCell id="EqQMDcm6i_RlThikZK2u-13" value="sitemaAtivo = true" style="whiteSpace=wrap;html=1;" vertex="1" parent="1">
          <mxGeometry x="210" y="390" width="150" height="40" as="geometry" />
        </mxCell>
        <mxCell id="EqQMDcm6i_RlThikZK2u-19" value="" style="edgeStyle=orthogonalEdgeStyle;rounded=0;orthogonalLoop=1;jettySize=auto;html=1;" edge="1" parent="1" source="EqQMDcm6i_RlThikZK2u-16" target="OaQ3OgYtoZX91j-wxRvZ-3">
          <mxGeometry relative="1" as="geometry">
            <mxPoint x="418.24222222222215" y="590" as="sourcePoint" />
            <mxPoint x="347.5" y="1321" as="targetPoint" />
            <Array as="points">
              <mxPoint x="849" y="525" />
              <mxPoint x="849" y="1620" />
            </Array>
          </mxGeometry>
        </mxCell>
        <mxCell id="EqQMDcm6i_RlThikZK2u-21" value="falso" style="edgeLabel;html=1;align=center;verticalAlign=middle;resizable=0;points=[];" vertex="1" connectable="0" parent="EqQMDcm6i_RlThikZK2u-19">
          <mxGeometry x="-0.6815" y="-3" relative="1" as="geometry">
            <mxPoint x="-11" y="-13" as="offset" />
          </mxGeometry>
        </mxCell>
        <mxCell id="EqQMDcm6i_RlThikZK2u-24" style="edgeStyle=orthogonalEdgeStyle;rounded=0;orthogonalLoop=1;jettySize=auto;html=1;" edge="1" parent="1" source="EqQMDcm6i_RlThikZK2u-16" target="EqQMDcm6i_RlThikZK2u-27">
          <mxGeometry relative="1" as="geometry">
            <mxPoint x="284.0999999999999" y="600" as="targetPoint" />
          </mxGeometry>
        </mxCell>
        <mxCell id="PIHjeUbVuv9eCzz-kvKn-16" value="true" style="edgeLabel;html=1;align=center;verticalAlign=middle;resizable=0;points=[];" connectable="0" vertex="1" parent="EqQMDcm6i_RlThikZK2u-24">
          <mxGeometry x="-0.4581" y="-1" relative="1" as="geometry">
            <mxPoint as="offset" />
          </mxGeometry>
        </mxCell>
        <mxCell id="EqQMDcm6i_RlThikZK2u-16" value="sitemaAtivo&amp;nbsp;" style="rhombus;whiteSpace=wrap;html=1;" vertex="1" parent="1">
          <mxGeometry x="237.5" y="480" width="95" height="90" as="geometry" />
        </mxCell>
        <mxCell id="EqQMDcm6i_RlThikZK2u-72" value="" style="edgeStyle=orthogonalEdgeStyle;rounded=0;orthogonalLoop=1;jettySize=auto;html=1;entryX=0.492;entryY=0.225;entryDx=0;entryDy=0;entryPerimeter=0;" edge="1" parent="1" source="EqQMDcm6i_RlThikZK2u-20" target="EqQMDcm6i_RlThikZK2u-74">
          <mxGeometry relative="1" as="geometry">
            <mxPoint x="280" y="1350" as="targetPoint" />
          </mxGeometry>
        </mxCell>
        <mxCell id="EqQMDcm6i_RlThikZK2u-20" value="saldo" style="shape=display;whiteSpace=wrap;html=1;" vertex="1" parent="1">
          <mxGeometry x="220" y="1270" width="120" height="50" as="geometry" />
        </mxCell>
        <mxCell id="EqQMDcm6i_RlThikZK2u-22" value="fim" style="ellipse;whiteSpace=wrap;html=1;" vertex="1" parent="1">
          <mxGeometry x="208.75" y="1690" width="125" height="80" as="geometry" />
        </mxCell>
        <mxCell id="EqQMDcm6i_RlThikZK2u-29" value="" style="edgeStyle=orthogonalEdgeStyle;rounded=0;orthogonalLoop=1;jettySize=auto;html=1;" edge="1" parent="1" source="EqQMDcm6i_RlThikZK2u-27" target="EqQMDcm6i_RlThikZK2u-28">
          <mxGeometry relative="1" as="geometry" />
        </mxCell>
        <mxCell id="EqQMDcm6i_RlThikZK2u-27" value="informa tipo de entrada" style="shape=manualInput;whiteSpace=wrap;html=1;" vertex="1" parent="1">
          <mxGeometry x="233.75" y="600" width="102.5" height="80" as="geometry" />
        </mxCell>
        <mxCell id="PIHjeUbVuv9eCzz-kvKn-18" value="" style="edgeStyle=orthogonalEdgeStyle;rounded=0;orthogonalLoop=1;jettySize=auto;html=1;" edge="1" parent="1" source="EqQMDcm6i_RlThikZK2u-28" target="PIHjeUbVuv9eCzz-kvKn-17">
          <mxGeometry relative="1" as="geometry" />
        </mxCell>
        <mxCell id="EqQMDcm6i_RlThikZK2u-28" value="informa quantidade" style="shape=manualInput;whiteSpace=wrap;html=1;" vertex="1" parent="1">
          <mxGeometry x="371.25" y="600" width="102.5" height="80" as="geometry" />
        </mxCell>
        <mxCell id="EqQMDcm6i_RlThikZK2u-37" value="" style="edgeStyle=orthogonalEdgeStyle;rounded=0;orthogonalLoop=1;jettySize=auto;html=1;" edge="1" parent="1" source="EqQMDcm6i_RlThikZK2u-35" target="EqQMDcm6i_RlThikZK2u-36">
          <mxGeometry relative="1" as="geometry">
            <Array as="points">
              <mxPoint x="282" y="780" />
              <mxPoint x="280" y="780" />
            </Array>
          </mxGeometry>
        </mxCell>
        <mxCell id="EqQMDcm6i_RlThikZK2u-35" value="escolha tipo" style="rounded=1;whiteSpace=wrap;html=1;" vertex="1" parent="1">
          <mxGeometry x="222.49999999999991" y="700" width="120" height="60" as="geometry" />
        </mxCell>
        <mxCell id="EqQMDcm6i_RlThikZK2u-39" value="" style="edgeStyle=orthogonalEdgeStyle;rounded=0;orthogonalLoop=1;jettySize=auto;html=1;" edge="1" parent="1" source="EqQMDcm6i_RlThikZK2u-36" target="EqQMDcm6i_RlThikZK2u-38">
          <mxGeometry relative="1" as="geometry" />
        </mxCell>
        <mxCell id="EqQMDcm6i_RlThikZK2u-49" value="true" style="edgeLabel;html=1;align=center;verticalAlign=middle;resizable=0;points=[];" vertex="1" connectable="0" parent="EqQMDcm6i_RlThikZK2u-39">
          <mxGeometry x="-0.2" y="3" relative="1" as="geometry">
            <mxPoint as="offset" />
          </mxGeometry>
        </mxCell>
        <mxCell id="EqQMDcm6i_RlThikZK2u-43" value="" style="edgeStyle=orthogonalEdgeStyle;rounded=0;orthogonalLoop=1;jettySize=auto;html=1;" edge="1" parent="1" source="EqQMDcm6i_RlThikZK2u-36" target="EqQMDcm6i_RlThikZK2u-42">
          <mxGeometry relative="1" as="geometry" />
        </mxCell>
        <mxCell id="EqQMDcm6i_RlThikZK2u-51" value="false" style="edgeLabel;html=1;align=center;verticalAlign=middle;resizable=0;points=[];" vertex="1" connectable="0" parent="EqQMDcm6i_RlThikZK2u-43">
          <mxGeometry x="-0.76" y="4" relative="1" as="geometry">
            <mxPoint as="offset" />
          </mxGeometry>
        </mxCell>
        <mxCell id="EqQMDcm6i_RlThikZK2u-36" value="caso 1&lt;br&gt;(compra)" style="rhombus;whiteSpace=wrap;html=1;rounded=1;" vertex="1" parent="1">
          <mxGeometry x="233.75" y="800" width="95" height="80" as="geometry" />
        </mxCell>
        <mxCell id="EqQMDcm6i_RlThikZK2u-58" style="edgeStyle=orthogonalEdgeStyle;rounded=0;orthogonalLoop=1;jettySize=auto;html=1;" edge="1" parent="1" source="EqQMDcm6i_RlThikZK2u-38" target="EqQMDcm6i_RlThikZK2u-20">
          <mxGeometry relative="1" as="geometry">
            <mxPoint x="336" y="1283" as="targetPoint" />
            <Array as="points">
              <mxPoint x="810" y="840" />
              <mxPoint x="810" y="1310" />
            </Array>
          </mxGeometry>
        </mxCell>
        <mxCell id="EqQMDcm6i_RlThikZK2u-38" value="saldo = saldo + quantidade" style="whiteSpace=wrap;html=1;rounded=1;" vertex="1" parent="1">
          <mxGeometry x="426.25" y="810" width="120" height="60" as="geometry" />
        </mxCell>
        <mxCell id="EqQMDcm6i_RlThikZK2u-45" value="" style="edgeStyle=orthogonalEdgeStyle;rounded=0;orthogonalLoop=1;jettySize=auto;html=1;" edge="1" parent="1" source="EqQMDcm6i_RlThikZK2u-42" target="EqQMDcm6i_RlThikZK2u-48">
          <mxGeometry relative="1" as="geometry">
            <mxPoint x="392.5" y="1140" as="targetPoint" />
          </mxGeometry>
        </mxCell>
        <mxCell id="EqQMDcm6i_RlThikZK2u-63" value="" style="edgeStyle=orthogonalEdgeStyle;rounded=0;orthogonalLoop=1;jettySize=auto;html=1;" edge="1" parent="1" source="EqQMDcm6i_RlThikZK2u-42" target="OaQ3OgYtoZX91j-wxRvZ-7">
          <mxGeometry relative="1" as="geometry">
            <mxPoint x="281.2857142857142" y="1040.0357142857147" as="targetPoint" />
          </mxGeometry>
        </mxCell>
        <mxCell id="OaQ3OgYtoZX91j-wxRvZ-6" value="false" style="edgeLabel;html=1;align=center;verticalAlign=middle;resizable=0;points=[];" connectable="0" vertex="1" parent="EqQMDcm6i_RlThikZK2u-63">
          <mxGeometry x="-0.6" y="-1" relative="1" as="geometry">
            <mxPoint as="offset" />
          </mxGeometry>
        </mxCell>
        <mxCell id="EqQMDcm6i_RlThikZK2u-42" value="caso 2&lt;br&gt;(venda)" style="rhombus;whiteSpace=wrap;html=1;rounded=1;" vertex="1" parent="1">
          <mxGeometry x="240" y="930" width="80" height="80" as="geometry" />
        </mxCell>
        <mxCell id="EqQMDcm6i_RlThikZK2u-53" value="" style="edgeStyle=orthogonalEdgeStyle;rounded=0;orthogonalLoop=1;jettySize=auto;html=1;" edge="1" parent="1" source="EqQMDcm6i_RlThikZK2u-48" target="EqQMDcm6i_RlThikZK2u-52">
          <mxGeometry relative="1" as="geometry" />
        </mxCell>
        <mxCell id="EqQMDcm6i_RlThikZK2u-54" value="false" style="edgeLabel;html=1;align=center;verticalAlign=middle;resizable=0;points=[];" vertex="1" connectable="0" parent="EqQMDcm6i_RlThikZK2u-53">
          <mxGeometry x="-0.25" y="3" relative="1" as="geometry">
            <mxPoint as="offset" />
          </mxGeometry>
        </mxCell>
        <mxCell id="EqQMDcm6i_RlThikZK2u-56" value="" style="edgeStyle=orthogonalEdgeStyle;rounded=0;orthogonalLoop=1;jettySize=auto;html=1;" edge="1" parent="1" source="EqQMDcm6i_RlThikZK2u-48" target="EqQMDcm6i_RlThikZK2u-55">
          <mxGeometry relative="1" as="geometry" />
        </mxCell>
        <mxCell id="EqQMDcm6i_RlThikZK2u-57" value="true" style="edgeLabel;html=1;align=center;verticalAlign=middle;resizable=0;points=[];" vertex="1" connectable="0" parent="EqQMDcm6i_RlThikZK2u-56">
          <mxGeometry x="-0.1667" y="2" relative="1" as="geometry">
            <mxPoint x="1" as="offset" />
          </mxGeometry>
        </mxCell>
        <mxCell id="EqQMDcm6i_RlThikZK2u-48" value="quantidade &amp;lt;= saldo&amp;nbsp;" style="rhombus;whiteSpace=wrap;html=1;" vertex="1" parent="1">
          <mxGeometry x="414" y="930" width="140" height="80" as="geometry" />
        </mxCell>
        <mxCell id="EqQMDcm6i_RlThikZK2u-68" style="edgeStyle=orthogonalEdgeStyle;rounded=0;orthogonalLoop=1;jettySize=auto;html=1;" edge="1" parent="1" source="EqQMDcm6i_RlThikZK2u-52" target="EqQMDcm6i_RlThikZK2u-20">
          <mxGeometry relative="1" as="geometry">
            <mxPoint x="484" y="1300" as="targetPoint" />
            <Array as="points">
              <mxPoint x="484" y="1280" />
            </Array>
          </mxGeometry>
        </mxCell>
        <mxCell id="EqQMDcm6i_RlThikZK2u-52" value="saldo insuficiente" style="shape=display;whiteSpace=wrap;html=1;" vertex="1" parent="1">
          <mxGeometry x="422.12" y="1060" width="123.75" height="40" as="geometry" />
        </mxCell>
        <mxCell id="PIHjeUbVuv9eCzz-kvKn-27" style="edgeStyle=orthogonalEdgeStyle;rounded=0;orthogonalLoop=1;jettySize=auto;html=1;" edge="1" parent="1" source="EqQMDcm6i_RlThikZK2u-55" target="EqQMDcm6i_RlThikZK2u-20">
          <mxGeometry relative="1" as="geometry">
            <mxPoint x="640" y="1270" as="targetPoint" />
            <Array as="points">
              <mxPoint x="699" y="1295" />
            </Array>
          </mxGeometry>
        </mxCell>
        <mxCell id="EqQMDcm6i_RlThikZK2u-55" value="saldo = saldo - quantidade" style="whiteSpace=wrap;html=1;" vertex="1" parent="1">
          <mxGeometry x="622.5" y="940" width="152.5" height="60" as="geometry" />
        </mxCell>
        <mxCell id="EqQMDcm6i_RlThikZK2u-66" value="" style="edgeStyle=orthogonalEdgeStyle;rounded=0;orthogonalLoop=1;jettySize=auto;html=1;" edge="1" parent="1" source="OaQ3OgYtoZX91j-wxRvZ-7" target="EqQMDcm6i_RlThikZK2u-64">
          <mxGeometry relative="1" as="geometry">
            <mxPoint x="281.2857142857142" y="1119.9642857142858" as="sourcePoint" />
          </mxGeometry>
        </mxCell>
        <mxCell id="EqQMDcm6i_RlThikZK2u-67" value="" style="edgeStyle=orthogonalEdgeStyle;rounded=0;orthogonalLoop=1;jettySize=auto;html=1;" edge="1" parent="1" source="EqQMDcm6i_RlThikZK2u-64" target="EqQMDcm6i_RlThikZK2u-20">
          <mxGeometry relative="1" as="geometry" />
        </mxCell>
        <mxCell id="EqQMDcm6i_RlThikZK2u-64" value="tipo de entrada não existe&amp;nbsp;" style="shape=display;whiteSpace=wrap;html=1;" vertex="1" parent="1">
          <mxGeometry x="220" y="1160" width="121.25" height="70" as="geometry" />
        </mxCell>
        <mxCell id="OaQ3OgYtoZX91j-wxRvZ-2" style="edgeStyle=orthogonalEdgeStyle;rounded=0;orthogonalLoop=1;jettySize=auto;html=1;" edge="1" parent="1" source="PIHjeUbVuv9eCzz-kvKn-2" target="EqQMDcm6i_RlThikZK2u-16">
          <mxGeometry relative="1" as="geometry">
            <mxPoint x="209.9957142857142" y="1405" as="sourcePoint" />
            <mxPoint x="166.20999999999998" y="510" as="targetPoint" />
            <Array as="points">
              <mxPoint x="130" y="1520" />
              <mxPoint x="130" y="525" />
            </Array>
          </mxGeometry>
        </mxCell>
        <mxCell id="PIHjeUbVuv9eCzz-kvKn-3" value="" style="edgeStyle=orthogonalEdgeStyle;rounded=0;orthogonalLoop=1;jettySize=auto;html=1;" edge="1" parent="1" source="EqQMDcm6i_RlThikZK2u-74" target="PIHjeUbVuv9eCzz-kvKn-2">
          <mxGeometry relative="1" as="geometry" />
        </mxCell>
        <mxCell id="EqQMDcm6i_RlThikZK2u-74" value="deseja encerar o sistema= s/n" style="shape=manualInput;whiteSpace=wrap;html=1;" vertex="1" parent="1">
          <mxGeometry x="240" y="1350" width="80" height="80" as="geometry" />
        </mxCell>
        <mxCell id="OaQ3OgYtoZX91j-wxRvZ-1" value="true" style="text;html=1;align=center;verticalAlign=middle;resizable=0;points=[];autosize=1;strokeColor=none;fillColor=none;" vertex="1" parent="1">
          <mxGeometry x="350" y="948" width="40" height="30" as="geometry" />
        </mxCell>
        <mxCell id="OaQ3OgYtoZX91j-wxRvZ-5" style="edgeStyle=orthogonalEdgeStyle;rounded=0;orthogonalLoop=1;jettySize=auto;html=1;" edge="1" parent="1" source="OaQ3OgYtoZX91j-wxRvZ-3" target="EqQMDcm6i_RlThikZK2u-22">
          <mxGeometry relative="1" as="geometry">
            <mxPoint x="281.25" y="1640" as="targetPoint" />
          </mxGeometry>
        </mxCell>
        <mxCell id="OaQ3OgYtoZX91j-wxRvZ-3" value="sistema foi encerrado" style="shape=display;whiteSpace=wrap;html=1;size=0.25;" vertex="1" parent="1">
          <mxGeometry x="200.63" y="1600" width="141.25" height="40" as="geometry" />
        </mxCell>
        <mxCell id="OaQ3OgYtoZX91j-wxRvZ-7" value="caso default" style="rounded=0;whiteSpace=wrap;html=1;" vertex="1" parent="1">
          <mxGeometry x="220" y="1050" width="120" height="60" as="geometry" />
        </mxCell>
        <mxCell id="PIHjeUbVuv9eCzz-kvKn-6" value="" style="edgeStyle=orthogonalEdgeStyle;rounded=0;orthogonalLoop=1;jettySize=auto;html=1;" edge="1" parent="1" source="PIHjeUbVuv9eCzz-kvKn-2" target="PIHjeUbVuv9eCzz-kvKn-4">
          <mxGeometry relative="1" as="geometry" />
        </mxCell>
        <mxCell id="PIHjeUbVuv9eCzz-kvKn-2" value="valor diferente de s/n" style="rhombus;whiteSpace=wrap;html=1;" vertex="1" parent="1">
          <mxGeometry x="220" y="1470" width="120" height="100" as="geometry" />
        </mxCell>
        <mxCell id="PIHjeUbVuv9eCzz-kvKn-5" style="edgeStyle=orthogonalEdgeStyle;rounded=0;orthogonalLoop=1;jettySize=auto;html=1;" edge="1" parent="1" source="PIHjeUbVuv9eCzz-kvKn-4" target="EqQMDcm6i_RlThikZK2u-74">
          <mxGeometry relative="1" as="geometry">
            <Array as="points">
              <mxPoint x="466" y="1390" />
            </Array>
          </mxGeometry>
        </mxCell>
        <mxCell id="PIHjeUbVuv9eCzz-kvKn-4" value="por favor digite apenas &lt;br&gt;&quot;s&quot; para SIM e &quot;n&quot; para NÃO&amp;nbsp;" style="shape=display;whiteSpace=wrap;html=1;" vertex="1" parent="1">
          <mxGeometry x="390" y="1495" width="208.75" height="50" as="geometry" />
        </mxCell>
        <mxCell id="PIHjeUbVuv9eCzz-kvKn-7" value="true" style="text;html=1;align=center;verticalAlign=middle;resizable=0;points=[];autosize=1;strokeColor=none;fillColor=none;" vertex="1" parent="1">
          <mxGeometry x="340" y="1498" width="40" height="30" as="geometry" />
        </mxCell>
        <mxCell id="PIHjeUbVuv9eCzz-kvKn-8" value="false" style="text;html=1;align=center;verticalAlign=middle;resizable=0;points=[];autosize=1;strokeColor=none;fillColor=none;" vertex="1" parent="1">
          <mxGeometry x="155" y="1498" width="50" height="30" as="geometry" />
        </mxCell>
        <mxCell id="PIHjeUbVuv9eCzz-kvKn-13" style="edgeStyle=orthogonalEdgeStyle;rounded=0;orthogonalLoop=1;jettySize=auto;html=1;" edge="1" parent="1" source="PIHjeUbVuv9eCzz-kvKn-23" target="EqQMDcm6i_RlThikZK2u-7">
          <mxGeometry relative="1" as="geometry">
            <mxPoint x="180" y="220" as="sourcePoint" />
            <Array as="points">
              <mxPoint x="155" y="190" />
            </Array>
          </mxGeometry>
        </mxCell>
        <mxCell id="PIHjeUbVuv9eCzz-kvKn-9" value="valo é valido" style="rhombus;whiteSpace=wrap;html=1;" vertex="1" parent="1">
          <mxGeometry x="270" y="240" width="80" height="80" as="geometry" />
        </mxCell>
        <mxCell id="PIHjeUbVuv9eCzz-kvKn-11" style="edgeStyle=orthogonalEdgeStyle;rounded=0;orthogonalLoop=1;jettySize=auto;html=1;entryX=0.401;entryY=0.06;entryDx=0;entryDy=0;entryPerimeter=0;" edge="1" parent="1" source="PIHjeUbVuv9eCzz-kvKn-9" target="EqQMDcm6i_RlThikZK2u-10">
          <mxGeometry relative="1" as="geometry" />
        </mxCell>
        <mxCell id="PIHjeUbVuv9eCzz-kvKn-14" value="true" style="edgeLabel;html=1;align=center;verticalAlign=middle;resizable=0;points=[];" connectable="0" vertex="1" parent="PIHjeUbVuv9eCzz-kvKn-11">
          <mxGeometry x="-0.3478" y="-5" relative="1" as="geometry">
            <mxPoint as="offset" />
          </mxGeometry>
        </mxCell>
        <mxCell id="PIHjeUbVuv9eCzz-kvKn-19" style="edgeStyle=orthogonalEdgeStyle;rounded=0;orthogonalLoop=1;jettySize=auto;html=1;" edge="1" parent="1" source="PIHjeUbVuv9eCzz-kvKn-17" target="EqQMDcm6i_RlThikZK2u-35">
          <mxGeometry relative="1" as="geometry">
            <Array as="points">
              <mxPoint x="710" y="730" />
            </Array>
          </mxGeometry>
        </mxCell>
        <mxCell id="PIHjeUbVuv9eCzz-kvKn-22" value="true" style="edgeLabel;html=1;align=center;verticalAlign=middle;resizable=0;points=[];" connectable="0" vertex="1" parent="PIHjeUbVuv9eCzz-kvKn-19">
          <mxGeometry x="-0.3556" y="2" relative="1" as="geometry">
            <mxPoint as="offset" />
          </mxGeometry>
        </mxCell>
        <mxCell id="PIHjeUbVuv9eCzz-kvKn-20" style="edgeStyle=orthogonalEdgeStyle;rounded=0;orthogonalLoop=1;jettySize=auto;html=1;" edge="1" parent="1" source="PIHjeUbVuv9eCzz-kvKn-17" target="EqQMDcm6i_RlThikZK2u-28">
          <mxGeometry relative="1" as="geometry">
            <Array as="points">
              <mxPoint x="710" y="580" />
              <mxPoint x="423" y="580" />
            </Array>
          </mxGeometry>
        </mxCell>
        <mxCell id="PIHjeUbVuv9eCzz-kvKn-21" value="false" style="edgeLabel;html=1;align=center;verticalAlign=middle;resizable=0;points=[];" connectable="0" vertex="1" parent="PIHjeUbVuv9eCzz-kvKn-20">
          <mxGeometry x="-0.4746" y="2" relative="1" as="geometry">
            <mxPoint x="46" y="-2" as="offset" />
          </mxGeometry>
        </mxCell>
        <mxCell id="PIHjeUbVuv9eCzz-kvKn-17" value="valor da quantidade valida" style="rhombus;whiteSpace=wrap;html=1;" vertex="1" parent="1">
          <mxGeometry x="670" y="600" width="80" height="80" as="geometry" />
        </mxCell>
        <mxCell id="PIHjeUbVuv9eCzz-kvKn-24" value="" style="edgeStyle=orthogonalEdgeStyle;rounded=0;orthogonalLoop=1;jettySize=auto;html=1;" edge="1" parent="1" source="PIHjeUbVuv9eCzz-kvKn-9" target="PIHjeUbVuv9eCzz-kvKn-23">
          <mxGeometry relative="1" as="geometry">
            <mxPoint x="270" y="280" as="sourcePoint" />
            <mxPoint x="260" y="190" as="targetPoint" />
            <Array as="points">
              <mxPoint x="155" y="280" />
            </Array>
          </mxGeometry>
        </mxCell>
        <mxCell id="PIHjeUbVuv9eCzz-kvKn-25" value="false" style="edgeLabel;html=1;align=center;verticalAlign=middle;resizable=0;points=[];" connectable="0" vertex="1" parent="PIHjeUbVuv9eCzz-kvKn-24">
          <mxGeometry x="-0.5062" relative="1" as="geometry">
            <mxPoint as="offset" />
          </mxGeometry>
        </mxCell>
        <mxCell id="PIHjeUbVuv9eCzz-kvKn-23" value="pro favor digite apenas numeros inteiros&amp;nbsp;" style="shape=display;whiteSpace=wrap;html=1;" vertex="1" parent="1">
          <mxGeometry x="70" y="210" width="170" height="40" as="geometry" />
        </mxCell>
        <mxCell id="PIHjeUbVuv9eCzz-kvKn-26" value="pro favor digite apenas numeros inteiros&amp;nbsp;" style="shape=display;whiteSpace=wrap;html=1;" vertex="1" parent="1">
          <mxGeometry x="490" y="560" width="170" height="40" as="geometry" />
        </mxCell>
        <mxCell id="PIHjeUbVuv9eCzz-kvKn-29" value="saída de produto &lt;br&gt;: quantidade&amp;nbsp;" style="shape=display;whiteSpace=wrap;html=1;" vertex="1" parent="1">
          <mxGeometry x="610" y="1080" width="160" height="40" as="geometry" />
        </mxCell>
        <mxCell id="PIHjeUbVuv9eCzz-kvKn-32" value="entrada de produtos &lt;br&gt;: quantidade" style="shape=display;whiteSpace=wrap;html=1;" vertex="1" parent="1">
          <mxGeometry x="580" y="820" width="170" height="40" as="geometry" />
        </mxCell>
      </root>
    </mxGraphModel>
  </diagram>
</mxfile>
